<?xml version="1.0" encoding="ISO-8859-1" ?>
<svg xmlns="http://www.w3.org/2000/svg"
     xmlns:xlink="http://www.w3.org/1999/xlink"
     version="1.1"
     baseProfile="full" width="640" height="400"><title>Kiviat diagram for +unitunes_class_gb.CriadorMidia</title><desc>Kiviat diagram showing the metric values for element unitunes_class_gb.CriadorMidia.</desc><text x="638" y="382" style="fill: rgb(0,0,0); text-anchor: end; baseline-shift: -100%; font-size: 12" >unitunes_class_gb.CriadorMidia</text><path d=" M 320,193 L 320,27 L 365,59 Z" style="stroke:rgb(230,230,230); fill:rgb(230,230,230)" /><path d="M 320,27 L 365,59" style="stroke:rgb(0,0,0)" /><path d=" M 320,193 L 365,59 L 406,81 Z" style="stroke:rgb(230,230,230); fill:rgb(230,230,230)" /><path d="M 365,59 L 406,81" style="stroke:rgb(0,0,0)" /><path d=" M 320,193 L 406,81 L 438,115 Z" style="stroke:rgb(230,230,230); fill:rgb(230,230,230)" /><path d="M 406,81 L 438,115" style="stroke:rgb(0,0,0)" /><path d=" M 320,193 L 438,115 L 454,159 Z" style="stroke:rgb(230,230,230); fill:rgb(230,230,230)" /><path d="M 438,115 L 454,159" style="stroke:rgb(0,0,0)" /><path d=" M 320,193 L 454,159 L 492,207 Z" style="stroke:rgb(230,230,230); fill:rgb(230,230,230)" /><path d="M 454,159 L 492,207" style="stroke:rgb(0,0,0)" /><path d=" M 320,193 L 492,207 L 419,236 Z" style="stroke:rgb(230,230,230); fill:rgb(230,230,230)" /><path d="M 492,207 L 419,236" style="stroke:rgb(0,0,0)" /><path d=" M 320,193 L 419,236 L 399,266 Z" style="stroke:rgb(230,230,230); fill:rgb(230,230,230)" /><path d="M 419,236 L 399,266" style="stroke:rgb(0,0,0)" /><path d=" M 320,193 L 399,266 L 402,345 Z" style="stroke:rgb(230,230,230); fill:rgb(230,230,230)" /><path d="M 399,266 L 402,345" style="stroke:rgb(0,0,0)" /><path d=" M 320,193 L 402,345 L 348,363 Z" style="stroke:rgb(230,230,230); fill:rgb(230,230,230)" /><path d="M 402,345 L 348,363" style="stroke:rgb(0,0,0)" /><path d=" M 320,193 L 348,363 L 291,363 Z" style="stroke:rgb(230,230,230); fill:rgb(230,230,230)" /><path d="M 348,363 L 291,363" style="stroke:rgb(0,0,0)" /><path d=" M 320,193 L 291,363 L 237,345 Z" style="stroke:rgb(230,230,230); fill:rgb(230,230,230)" /><path d="M 291,363 L 237,345" style="stroke:rgb(0,0,0)" /><path d=" M 320,193 L 237,345 L 201,301 Z" style="stroke:rgb(230,230,230); fill:rgb(230,230,230)" /><path d="M 237,345 L 201,301" style="stroke:rgb(0,0,0)" /><path d=" M 320,193 L 201,301 L 172,257 Z" style="stroke:rgb(230,230,230); fill:rgb(230,230,230)" /><path d="M 201,301 L 172,257" style="stroke:rgb(0,0,0)" /><path d=" M 320,193 L 172,257 L 194,203 Z" style="stroke:rgb(230,230,230); fill:rgb(230,230,230)" /><path d="M 172,257 L 194,203" style="stroke:rgb(0,0,0)" /><path d=" M 320,193 L 194,203 L 208,164 Z" style="stroke:rgb(230,230,230); fill:rgb(230,230,230)" /><path d="M 194,203 L 208,164" style="stroke:rgb(0,0,0)" /><path d=" M 320,193 L 208,164 L 193,110 Z" style="stroke:rgb(230,230,230); fill:rgb(230,230,230)" /><path d="M 208,164 L 193,110" style="stroke:rgb(0,0,0)" /><path d=" M 320,193 L 193,110 L 249,102 Z" style="stroke:rgb(230,230,230); fill:rgb(230,230,230)" /><path d="M 193,110 L 249,102" style="stroke:rgb(0,0,0)" /><path d=" M 320,193 L 249,102 L 266,36 Z" style="stroke:rgb(230,230,230); fill:rgb(230,230,230)" /><path d="M 249,102 L 266,36" style="stroke:rgb(0,0,0)" /><path d=" M 320,193 L 266,36 L 320,27 Z" style="stroke:rgb(230,230,230); fill:rgb(230,230,230)" /><path d="M 266,36 L 320,27" style="stroke:rgb(0,0,0)" /><path d="M 320,193 L 320,20" style="stroke:rgb(0,0,0); stroke-width:1; stroke-dasharray:3" /><text x="322" y="20" style="fill: rgb(0,0,0)" >NumAttr</text><path d="M 320,193 L 376,29" style="stroke:rgb(0,0,0); stroke-width:1; stroke-dasharray:3" /><text x="378" y="29" style="fill: rgb(0,0,0)" >NumOps</text><path d="M 320,193 L 426,56" style="stroke:rgb(0,0,0); stroke-width:1; stroke-dasharray:3" /><text x="428" y="56" style="fill: rgb(0,0,0)" >NumPubOps</text><path d="M 320,193 L 464,98" style="stroke:rgb(0,0,0); stroke-width:1; stroke-dasharray:3" /><text x="466" y="98" style="fill: rgb(0,0,0)" >Setters</text><path d="M 320,193 L 487,150" style="stroke:rgb(0,0,0); stroke-width:1; stroke-dasharray:3" /><text x="489" y="150" style="fill: rgb(0,0,0)" >Getters</text><path d="M 320,193 L 492,207" style="stroke:rgb(0,0,0); stroke-width:1; stroke-dasharray:3" /><text x="494" y="207" style="fill: rgb(0,0,0); baseline-shift: -100%" >Nesting</text><path d="M 320,193 L 478,262" style="stroke:rgb(0,0,0); stroke-width:1; stroke-dasharray:3" /><text x="480" y="262" style="fill: rgb(0,0,0); baseline-shift: -100%" >NOC</text><path d="M 320,193 L 447,310" style="stroke:rgb(0,0,0); stroke-width:1; stroke-dasharray:3" /><text x="449" y="310" style="fill: rgb(0,0,0); baseline-shift: -100%" >NumDesc</text><path d="M 320,193 L 402,345" style="stroke:rgb(0,0,0); stroke-width:1; stroke-dasharray:3" /><text x="404" y="345" style="fill: rgb(0,0,0); baseline-shift: -100%" >NumAnc</text><path d="M 320,193 L 348,363" style="stroke:rgb(0,0,0); stroke-width:1; stroke-dasharray:3" /><text x="350" y="363" style="fill: rgb(0,0,0); baseline-shift: -100%" >DIT</text><path d="M 320,193 L 291,363" style="stroke:rgb(0,0,0); stroke-width:1; stroke-dasharray:3" /><text x="289" y="363" style="fill: rgb(0,0,0); text-anchor: end; baseline-shift: -100%" >CLD</text><path d="M 320,193 L 237,345" style="stroke:rgb(0,0,0); stroke-width:1; stroke-dasharray:3" /><text x="235" y="345" style="fill: rgb(0,0,0); text-anchor: end; baseline-shift: -100%" >AttrInh</text><path d="M 320,193 L 192,310" style="stroke:rgb(0,0,0); stroke-width:1; stroke-dasharray:3" /><text x="190" y="310" style="fill: rgb(0,0,0); text-anchor: end; baseline-shift: -100%" >NumAssEl_ssc</text><path d="M 320,193 L 161,262" style="stroke:rgb(0,0,0); stroke-width:1; stroke-dasharray:3" /><text x="159" y="262" style="fill: rgb(0,0,0); text-anchor: end; baseline-shift: -100%" >NumAssEl_sb</text><path d="M 320,193 L 147,207" style="stroke:rgb(0,0,0); stroke-width:1; stroke-dasharray:3" /><text x="145" y="207" style="fill: rgb(0,0,0); text-anchor: end; baseline-shift: -100%" >NumAssEl_nsb</text><path d="M 320,193 L 152,150" style="stroke:rgb(0,0,0); stroke-width:1; stroke-dasharray:3" /><text x="150" y="150" style="fill: rgb(0,0,0); text-anchor: end" >EC_Attr</text><path d="M 320,193 L 175,98" style="stroke:rgb(0,0,0); stroke-width:1; stroke-dasharray:3" /><text x="173" y="98" style="fill: rgb(0,0,0); text-anchor: end" >IC_Attr</text><path d="M 320,193 L 213,56" style="stroke:rgb(0,0,0); stroke-width:1; stroke-dasharray:3" /><text x="211" y="56" style="fill: rgb(0,0,0); text-anchor: end" >EC_Par</text><path d="M 320,193 L 263,29" style="stroke:rgb(0,0,0); stroke-width:1; stroke-dasharray:3" /><text x="261" y="29" style="fill: rgb(0,0,0); text-anchor: end" >IC_Par</text><path d="M 320,149 L 322,185" style="stroke:rgb(0,0,0); stroke-width:3" /><path d="M 322,185 L 324,186" style="stroke:rgb(0,0,0); stroke-width:3" /><path d="M 324,186 L 320,193" style="stroke:rgb(0,0,0); stroke-width:3" /><path d="M 320,193 L 320,193" style="stroke:rgb(0,0,0); stroke-width:3" /><path d="M 320,193 L 320,193" style="stroke:rgb(0,0,0); stroke-width:3" /><path d="M 320,193 L 320,193" style="stroke:rgb(0,0,0); stroke-width:3" /><path d="M 320,193 L 320,193" style="stroke:rgb(0,0,0); stroke-width:3" /><path d="M 320,193 L 320,193" style="stroke:rgb(0,0,0); stroke-width:3" /><path d="M 320,193 L 320,193" style="stroke:rgb(0,0,0); stroke-width:3" /><path d="M 320,193 L 320,193" style="stroke:rgb(0,0,0); stroke-width:3" /><path d="M 320,193 L 320,193" style="stroke:rgb(0,0,0); stroke-width:3" /><path d="M 320,193 L 265,243" style="stroke:rgb(0,0,0); stroke-width:3" /><path d="M 265,243 L 252,222" style="stroke:rgb(0,0,0); stroke-width:3" /><path d="M 252,222 L 320,193" style="stroke:rgb(0,0,0); stroke-width:3" /><path d="M 320,193 L 306,189" style="stroke:rgb(0,0,0); stroke-width:3" /><path d="M 306,189 L 283,169" style="stroke:rgb(0,0,0); stroke-width:3" /><path d="M 283,169 L 320,193" style="stroke:rgb(0,0,0); stroke-width:3" /><path d="M 320,193 L 320,193" style="stroke:rgb(0,0,0); stroke-width:3" /><path d="M 320,193 L 320,149" style="stroke:rgb(0,0,0); stroke-width:3" /></svg>