<?xml version="1.0" encoding="ISO-8859-1" ?>
<svg xmlns="http://www.w3.org/2000/svg"
     xmlns:xlink="http://www.w3.org/1999/xlink"
     version="1.1"
     baseProfile="full" width="640" height="400"><title>Kiviat diagram for +unitunes_class_gb.model</title><desc>Kiviat diagram showing the metric values for element unitunes_class_gb.model.</desc><text x="638" y="382" style="fill: rgb(0,0,0); text-anchor: end; baseline-shift: -100%; font-size: 12" >unitunes_class_gb.model</text><path d=" M 320,193 L 320,30 L 395,49 Z" style="stroke:rgb(230,230,230); fill:rgb(230,230,230)" /><path d="M 320,30 L 395,49" style="stroke:rgb(0,0,0)" /><path d=" M 320,193 L 395,49 L 423,121 Z" style="stroke:rgb(230,230,230); fill:rgb(230,230,230)" /><path d="M 395,49 L 423,121" style="stroke:rgb(0,0,0)" /><path d=" M 320,193 L 423,121 L 427,179 Z" style="stroke:rgb(230,230,230); fill:rgb(230,230,230)" /><path d="M 423,121 L 427,179" style="stroke:rgb(0,0,0)" /><path d=" M 320,193 L 427,179 L 450,242 Z" style="stroke:rgb(230,230,230); fill:rgb(230,230,230)" /><path d="M 427,179 L 450,242" style="stroke:rgb(0,0,0)" /><path d=" M 320,193 L 450,242 L 413,298 Z" style="stroke:rgb(230,230,230); fill:rgb(230,230,230)" /><path d="M 450,242 L 413,298" style="stroke:rgb(0,0,0)" /><path d=" M 320,193 L 413,298 L 359,351 Z" style="stroke:rgb(230,230,230); fill:rgb(230,230,230)" /><path d="M 413,298 L 359,351" style="stroke:rgb(0,0,0)" /><path d=" M 320,193 L 359,351 L 293,300 Z" style="stroke:rgb(230,230,230); fill:rgb(230,230,230)" /><path d="M 359,351 L 293,300" style="stroke:rgb(0,0,0)" /><path d=" M 320,193 L 293,300 L 262,257 Z" style="stroke:rgb(230,230,230); fill:rgb(230,230,230)" /><path d="M 293,300 L 262,257" style="stroke:rgb(0,0,0)" /><path d=" M 320,193 L 262,257 L 231,226 Z" style="stroke:rgb(230,230,230); fill:rgb(230,230,230)" /><path d="M 262,257 L 231,226" style="stroke:rgb(0,0,0)" /><path d=" M 320,193 L 231,226 L 214,180 Z" style="stroke:rgb(230,230,230); fill:rgb(230,230,230)" /><path d="M 231,226 L 214,180" style="stroke:rgb(0,0,0)" /><path d=" M 320,193 L 214,180 L 187,101 Z" style="stroke:rgb(230,230,230); fill:rgb(230,230,230)" /><path d="M 214,180 L 187,101" style="stroke:rgb(0,0,0)" /><path d=" M 320,193 L 187,101 L 239,39 Z" style="stroke:rgb(230,230,230); fill:rgb(230,230,230)" /><path d="M 187,101 L 239,39" style="stroke:rgb(0,0,0)" /><path d=" M 320,193 L 239,39 L 320,30 Z" style="stroke:rgb(230,230,230); fill:rgb(230,230,230)" /><path d="M 239,39 L 320,30" style="stroke:rgb(0,0,0)" /><path d="M 320,193 L 320,20" style="stroke:rgb(0,0,0); stroke-width:1; stroke-dasharray:3" /><text x="322" y="20" style="fill: rgb(0,0,0)" >NumCls</text><path d="M 320,193 L 400,39" style="stroke:rgb(0,0,0); stroke-width:1; stroke-dasharray:3" /><text x="402" y="39" style="fill: rgb(0,0,0)" >NumCls_tc</text><path d="M 320,193 L 462,94" style="stroke:rgb(0,0,0); stroke-width:1; stroke-dasharray:3" /><text x="464" y="94" style="fill: rgb(0,0,0)" >NumOpsCls</text><path d="M 320,193 L 491,172" style="stroke:rgb(0,0,0); stroke-width:1; stroke-dasharray:3" /><text x="493" y="172" style="fill: rgb(0,0,0)" >R</text><path d="M 320,193 L 481,254" style="stroke:rgb(0,0,0); stroke-width:1; stroke-dasharray:3" /><text x="483" y="254" style="fill: rgb(0,0,0); baseline-shift: -100%" >H</text><path d="M 320,193 L 434,322" style="stroke:rgb(0,0,0); stroke-width:1; stroke-dasharray:3" /><text x="436" y="322" style="fill: rgb(0,0,0); baseline-shift: -100%" >Ca</text><path d="M 320,193 L 361,360" style="stroke:rgb(0,0,0); stroke-width:1; stroke-dasharray:3" /><text x="363" y="360" style="fill: rgb(0,0,0); baseline-shift: -100%" >Ce</text><path d="M 320,193 L 278,360" style="stroke:rgb(0,0,0); stroke-width:1; stroke-dasharray:3" /><text x="276" y="360" style="fill: rgb(0,0,0); text-anchor: end; baseline-shift: -100%" >I</text><path d="M 320,193 L 205,322" style="stroke:rgb(0,0,0); stroke-width:1; stroke-dasharray:3" /><text x="203" y="322" style="fill: rgb(0,0,0); text-anchor: end; baseline-shift: -100%" >A</text><path d="M 320,193 L 158,254" style="stroke:rgb(0,0,0); stroke-width:1; stroke-dasharray:3" /><text x="156" y="254" style="fill: rgb(0,0,0); text-anchor: end; baseline-shift: -100%" >D</text><path d="M 320,193 L 148,172" style="stroke:rgb(0,0,0); stroke-width:1; stroke-dasharray:3" /><text x="146" y="172" style="fill: rgb(0,0,0); text-anchor: end" >DN</text><path d="M 320,193 L 177,94" style="stroke:rgb(0,0,0); stroke-width:1; stroke-dasharray:3" /><text x="175" y="94" style="fill: rgb(0,0,0); text-anchor: end" >ConnComp</text><path d="M 320,193 L 239,39" style="stroke:rgb(0,0,0); stroke-width:1; stroke-dasharray:3" /><text x="237" y="39" style="fill: rgb(0,0,0); text-anchor: end" >DepPack</text><path d="M 320,41 L 390,58" style="stroke:rgb(0,0,0); stroke-width:3" /><path d="M 390,58 L 462,94" style="stroke:rgb(0,0,0); stroke-width:3" /><path d="M 462,94 L 320,193" style="stroke:rgb(0,0,0); stroke-width:3" /><path d="M 320,193 L 334,198" style="stroke:rgb(0,0,0); stroke-width:3" /><path d="M 334,198 L 386,268" style="stroke:rgb(0,0,0); stroke-width:3" /><path d="M 386,268 L 347,302" style="stroke:rgb(0,0,0); stroke-width:3" /><path d="M 347,302 L 315,212" style="stroke:rgb(0,0,0); stroke-width:3" /><path d="M 315,212 L 320,193" style="stroke:rgb(0,0,0); stroke-width:3" /><path d="M 320,193 L 313,195" style="stroke:rgb(0,0,0); stroke-width:3" /><path d="M 313,195 L 296,190" style="stroke:rgb(0,0,0); stroke-width:3" /><path d="M 296,190 L 177,94" style="stroke:rgb(0,0,0); stroke-width:3" /><path d="M 177,94 L 239,39" style="stroke:rgb(0,0,0); stroke-width:3" /><path d="M 239,39 L 320,41" style="stroke:rgb(0,0,0); stroke-width:3" /></svg>